<?xml version="1.0" encoding="UTF-8"?>
<svg
    xmlns="http://www.w3.org/2000/svg"
    viewBox="0 0 24 24"
    width="64"
    height="64"
    fill="currentColor"
>
    <g>
        <path d="M12,21H8c-2.757,0-5-2.243-5-5v-6h14v6C17,18.757,14.757,21,12,21z M5,12v4c0,1.654,1.346,3,3,3h4c1.654,0,3-1.346,3-3v-4H5z"/>
    </g>
    <g>
        <path d="M16.38,18.515l-0.76-1.85l3.316-1.362L18.981,13H16v-2h5v4.279c0,0.862-0.55,1.625-1.368,1.897L16.38,18.515z"/>
    </g>
    <g>
        <path d="M9.895,8.447L8.105,7.553l0.553-1.105c0.14-0.28,0.14-0.614,0-0.895L8.553,5.342c-0.42-0.84-0.42-1.844,0-2.684
            l0.553-1.105l1.789,0.895l-0.553,1.105c-0.14,0.28-0.14,0.614,0,0.895l0.105,0.211c0.42,0.84,0.42,1.844,0,2.684L9.895,8.447z"/>
    </g>
    <g>
        <path d="M13.895,8.447l-1.789-0.895l0.553-1.105c0.14-0.28,0.14-0.614,0-0.895l-0.105-0.211c-0.42-0.84-0.42-1.844,0-2.684
            l0.553-1.105l1.789,0.895l-0.553,1.105c-0.14,0.28-0.14,0.614,0,0.895l0.105,0.211c0.42,0.84,0.42,1.844,0,2.684L13.895,8.447z"/>
    </g>
    <g>
        <path d="M5.895,8.447L4.105,7.553l0.553-1.105c0.14-0.28,0.14-0.614,0-0.895L4.553,5.342c-0.42-0.84-0.42-1.844,0-2.684
            l0.553-1.105l1.789,0.895L6.342,3.553c-0.14,0.28-0.14,0.614,0,0.895l0.105,0.211c0.42,0.84,0.42,1.844,0,2.684L5.895,8.447z"/>
    </g>
</svg>

